<svg width="426" height="401" viewBox="0 0 426 401" fill="none" xmlns="http://www.w3.org/2000/svg">
<g clip-path="url(#clip0_4_3)">
<path d="M228.363 16.09C207.243 15.89 79.3132 13.91 75.5532 49.56C71.9532 83.71 121.523 71.2 122.003 86.36C122.513 102.28 113.063 106.88 86.6732 105.87C75.2432 105.43 39.1532 109.48 38.5732 132.26C37.9932 154.91 78.2932 152.05 76.3032 170.85C75.1432 192.21 44.5432 196.86 32.4832 202.51C19.3832 209.36 -4.72683 220.66 0.813168 244.91C8.10317 273.03 54.4032 267.97 71.8432 271.44C83.4932 273.33 120.523 276.6 115.253 301.52C112.483 316.5 82.0832 317.37 87.8932 336.58C93.7732 354.54 146.783 358.09 157.523 358.68C202.103 361.09 299.983 365.03 343.583 346.64C359.613 339.95 373.763 331.89 372.123 307.85C371.323 286.38 359.753 283.24 379.253 266.65C391.583 255.97 415.183 256.83 413.783 225.67C413.033 208.86 370.023 201.88 370.983 184.28C372.483 156.63 425.273 180.11 425.463 131.21C425.583 100.69 329.543 117.76 330.523 87.57C329.233 75.32 350.363 70.12 349.463 56.55C349.963 34.83 325.083 18.76 228.373 16.09H228.363Z" fill="#546B82" fill-opacity="0.7"/>
<path d="M144.56 237.5C144.46 237.56 144.33 237.6 144.18 237.6H70.65C70.32 237.6 70 237.37 69.92 237.05C69.12 233.55 73.16 230.81 75.89 232.15C76.27 230.37 78.03 229.15 79.87 229.37C78.86 226.18 80.26 222.95 83.61 221.39C86.69 219.96 89.57 221.14 91.4 223.47C92.45 218.06 97.12 213.38 102.81 212.98C105.9 212.77 109.17 213.64 111.58 215.67C113.98 217.68 114.76 219.89 115.36 222.6C117.16 220.02 120.06 218.8 123.41 219.84C126.71 220.86 127.13 224.23 126.98 227.26C129.64 225.05 132.84 223.98 136.31 226.07C139.19 227.8 139.82 230.59 139.93 233.62C142.3 232.21 144.75 233.61 144.94 236.85C144.96 237.18 144.79 237.4 144.57 237.5H144.56Z" fill="#546B82"/>
<path d="M349.67 85.12C349.67 99.21 387.91 101.81 389.89 85.12C391.88 68.42 349.67 63.96 349.67 85.12Z" fill="#546B82"/>
<path d="M40.94 301.91C40.94 316.01 88.26 318.73 89.98 301.91C92.1 281.17 40.94 277.23 40.94 301.91Z" fill="#546B82"/>
<path d="M316.74 381.42C316.74 398.14 372.86 401.37 374.9 381.42C377.41 356.83 316.74 352.15 316.74 381.42Z" fill="#546B82"/>
<path d="M36.94 86.11C36.94 95.31 63.02 97.09 63.97 86.11C65.14 72.57 36.94 70 36.94 86.11Z" fill="#546B82"/>
<path d="M186.41 250.01C187.19 246.1 181.4 242.5 176.94 243.94C177.67 241.26 176.84 238.82 172.88 237.62C171.23 237.12 169.25 237.13 167.51 237.6C170.63 231.38 167.73 224.3 158.09 222.84C147.61 221.25 135.98 226.39 133.9 234.67C125.38 226.29 107.32 236.33 112.65 245.97C109.36 245.45 105.96 247.31 105.76 250.08C102.43 248.95 99.8 252.35 101.86 255.27C102.01 255.48 102.32 255.62 102.62 255.62H191.58C191.81 255.62 191.99 255.56 192.12 255.48C192.26 255.4 192.37 255.28 192.43 255.11C193.44 252.23 189.71 249.49 186.41 250.02V250.01Z" fill="white"/>
<path d="M187.33 316.36C187.68 314.63 185.11 313.04 183.14 313.68C183.46 312.49 183.1 311.42 181.35 310.89C180.62 310.67 179.75 310.67 178.98 310.88C180.36 308.13 179.07 305 174.81 304.35C170.18 303.64 165.03 305.92 164.11 309.58C160.34 305.87 152.36 310.31 154.71 314.58C153.25 314.35 151.75 315.17 151.66 316.4C150.19 315.9 149.02 317.4 149.94 318.7C150.01 318.79 150.14 318.85 150.28 318.85H189.62C189.72 318.85 189.8 318.83 189.86 318.79C189.92 318.75 189.97 318.7 190 318.62C190.45 317.35 188.8 316.13 187.34 316.37L187.33 316.36Z" fill="white"/>
<path d="M346.13 155.97C346.21 156.02 346.3 156.05 346.42 156.05H401.12C401.36 156.05 401.61 155.88 401.66 155.64C402.26 153.04 399.25 151 397.22 151.99C396.93 150.67 395.62 149.76 394.26 149.93C395.01 147.56 393.97 145.15 391.48 144C389.19 142.94 387.05 143.81 385.69 145.55C384.91 141.52 381.43 138.04 377.2 137.75C374.9 137.59 372.47 138.24 370.68 139.75C368.89 141.25 368.31 142.89 367.87 144.9C366.53 142.98 364.37 142.08 361.88 142.85C359.42 143.61 359.11 146.12 359.23 148.37C357.25 146.73 354.87 145.93 352.29 147.48C350.15 148.77 349.68 150.84 349.59 153.09C347.83 152.04 346.01 153.09 345.86 155.49C345.85 155.74 345.97 155.9 346.14 155.98L346.13 155.97Z" fill="white"/>
<path d="M203.56 57.75C203.61 57.78 203.68 57.8 203.75 57.8H240.71C240.87 57.8 241.04 57.69 241.08 57.52C241.49 55.76 239.45 54.38 238.08 55.06C237.89 54.17 237 53.55 236.08 53.66C236.59 52.06 235.89 50.43 234.2 49.65C232.65 48.93 231.21 49.52 230.29 50.7C229.76 47.98 227.41 45.63 224.55 45.43C223 45.32 221.35 45.76 220.14 46.78C218.93 47.79 218.54 48.9 218.24 50.26C217.34 48.96 215.88 48.35 214.2 48.87C212.54 49.38 212.33 51.08 212.41 52.6C211.07 51.49 209.47 50.95 207.72 52C206.27 52.87 205.96 54.27 205.9 55.79C204.71 55.08 203.48 55.79 203.38 57.41C203.38 57.58 203.45 57.69 203.57 57.74L203.56 57.75Z" fill="white"/>
<path d="M291.12 378.46C291.12 378.32 291.07 378.2 291.01 378.11C290.91 377.9 290.71 377.74 290.4 377.75C281.09 377.9 271.79 378.05 262.48 378.2C262.1 378.2 261.75 378.52 261.76 378.92C261.98 384.3 261.53 389.85 262.42 395.18C263.25 400.15 268.7 400.53 272.91 400.77C278.31 401.08 286.01 401.27 289.11 398.42C292.7 395.11 291.3 383.74 291.12 378.47V378.46Z" fill="#82B7BC"/>
<path d="M266.62 388.97C262.4 388.97 261.43 384.99 261.42 384.95C261.37 384.72 261.51 384.49 261.74 384.44C261.98 384.39 262.2 384.53 262.26 384.76C262.3 384.92 263.28 388.83 267.86 388C270.91 387.45 271.14 381.06 271.14 381C271.14 380.79 271.31 380.61 271.52 380.59C271.72 380.56 271.93 380.69 271.99 380.9C272.07 381.18 272.15 381.54 272.25 381.95C272.6 383.5 273.14 385.83 274.25 386.81C275.65 388.03 278.86 388.18 280.51 387.44C282.23 386.77 283.06 384.36 283 382.18C282.96 381.87 282.93 381.54 282.91 381.22C282.91 380.99 283.07 380.8 283.3 380.78C283.52 380.76 283.73 380.92 283.77 381.14C283.82 381.46 283.85 381.78 283.86 382.1C284.22 384.44 285.59 386.39 287.34 386.92C288.73 387.33 290.07 386.74 291.13 385.26C291.27 385.07 291.54 385.02 291.73 385.16C291.92 385.3 291.97 385.57 291.83 385.76C290.56 387.54 288.83 388.27 287.1 387.74C285.62 387.3 284.39 386.06 283.65 384.42C283.25 386.15 282.32 387.67 280.86 388.24C278.95 389.09 275.39 388.94 273.7 387.46C272.69 386.58 272.12 384.93 271.74 383.46C271.34 385.6 270.37 388.43 268.04 388.85C267.54 388.94 267.08 388.98 266.65 388.98L266.62 388.97Z" fill="#A3D0D8"/>
<path d="M275.8 375.86C272.84 375.86 262.8 375.99 261.7 378.26C260.23 381.44 276.57 381.19 279.73 381.09C294.69 380.6 296.47 375.11 275.81 375.86H275.8Z" fill="#709DA0"/>
<path d="M275.8 375.29C274.09 375.29 259.75 375.04 261.06 378.92C261.7 380.81 264.73 380.98 266.34 381.21C269.89 381.7 273.51 381.72 277.09 381.71C280.26 381.69 283.42 381.53 286.55 380.97C287.95 380.72 290.98 380.24 291.6 378.61C293.2 374.41 276.93 375.25 275.8 375.29C275.06 375.31 275.06 376.46 275.8 376.44C279.07 376.34 282.32 376.34 285.58 376.65C286.15 376.71 291.84 377.47 289.98 378.68C286.54 380.93 281.04 380.53 277.1 380.56C272.7 380.6 268 380.68 263.73 379.54C261.66 378.99 263.06 377.79 264.43 377.39C265.87 376.97 267.41 376.84 268.89 376.7C271.18 376.48 273.5 376.44 275.81 376.43C276.55 376.43 276.55 375.28 275.81 375.28L275.8 375.29Z" fill="#A3D0D8"/>
<path d="M291.32 344.18C291.13 355.49 290.73 366.8 290.58 378.1C290.58 378.65 291.43 378.65 291.44 378.1C291.59 366.8 292 355.48 292.18 344.18C292.19 343.63 291.33 343.63 291.32 344.18Z" fill="#82B7BC"/>
<path d="M259.57 343.99C259.92 355.44 260.07 366.85 261.27 378.25C261.33 378.79 262.19 378.8 262.13 378.25C260.93 366.85 260.78 355.44 260.43 343.99C260.41 343.44 259.55 343.44 259.57 343.99Z" fill="#82B7BC"/>
<path d="M275.06 345.91C276.02 357.45 274.82 369.03 275.82 380.57C275.87 381.12 276.73 381.12 276.68 380.57C275.67 369.03 276.88 357.45 275.92 345.91C275.87 345.36 275.01 345.36 275.06 345.91Z" fill="#82B7BC"/>
<path d="M335.61 245.67C332 236.52 325.35 227.41 314.94 225.53C314.86 225.52 314.79 225.52 314.72 225.51C314.66 225.51 314.61 225.48 314.55 225.48C306.78 224.69 302.26 232.44 299.52 238.37C294.59 249.09 292.43 261.1 290.49 272.62C286.69 295.29 282.77 320.13 289.42 342.6C289.78 343.84 291.44 344 292.13 342.95C299.24 332.02 313.91 328.28 323.29 319.56C333.09 310.45 338.07 297.13 339.66 284.24C341.29 271.1 340.51 258.1 335.61 245.67Z" fill="#A3D0D8"/>
<path d="M258.23 282.34C254.78 263.69 246.63 245.04 237.23 228.51C236.9 227.94 236.37 227.75 235.86 227.82C235.65 227.82 235.43 227.88 235.2 227.99C225.75 232.85 220.67 242.16 217.49 251.78C214.07 262.1 212.28 274.68 213.87 285.48C215.92 299.46 223.82 311.81 234.23 321.36C242.75 329.2 253.36 334.27 260.98 343.23C261.83 344.23 263.52 343.39 263.51 342.2C263.31 322.23 261.88 301.99 258.24 282.33L258.23 282.34Z" fill="#546B82"/>
<path d="M303.18 214.72C294.83 210.16 285.07 209.39 275.85 211.22C275.28 211.33 274.96 211.67 274.84 212.08C269.26 220.04 268.44 231.17 267.63 240.48C266.34 255.12 266.69 269.91 267.34 284.57C268.22 304.33 269.88 324.14 272.4 343.77C272.5 344.55 273 345.22 273.88 345.22H290.87C291.37 345.22 291.91 344.95 292.15 344.5C307.83 315.7 312.22 281.06 314.85 248.95C315.45 241.63 315.93 234.28 316.05 226.94C316.13 222.09 306.73 216.66 303.2 214.73L303.18 214.72Z" fill="#546B82"/>
<path d="M279.66 216.9C277 201.57 249.94 213.8 242.78 219.04C236.16 223.88 234.37 228.46 233.94 235.86C233.23 248.19 233.9 260.59 235.46 272.83C237.61 289.64 241.87 306.37 248.71 321.96C250.79 326.71 253.07 331.35 255.57 335.9C256.7 337.96 259.19 344.5 261.63 345.16C265.22 346.13 270.15 345.21 273.87 345.21C274.61 345.21 275.06 344.77 275.23 344.24C275.29 344.1 275.34 343.94 275.35 343.76C277.69 315.81 279.54 287.79 280.5 259.76C280.98 245.7 282.08 230.85 279.66 216.9Z" fill="#A3D0D8"/>
<path d="M259.18 345.86C270.14 347.9 281.71 347.77 292.66 345.86C295.79 345.32 294.46 341.12 291.34 341.67C281.31 343.41 270.54 343.54 260.5 341.67C257.38 341.09 256.06 345.28 259.18 345.86Z" fill="#82B7BC"/>
<path d="M158.05 73.22C158.05 73.16 158.03 73.11 158 73.07C157.95 72.98 157.87 72.91 157.74 72.91C153.71 72.98 149.68 73.04 145.64 73.11C145.48 73.11 145.32 73.25 145.33 73.42C145.43 75.75 145.23 78.15 145.62 80.46C145.98 82.61 148.34 82.78 150.16 82.88C152.5 83.02 155.84 83.1 157.18 81.86C158.74 80.43 158.13 75.5 158.05 73.22Z" fill="#8CA8AF"/>
<path d="M147.44 77.78C145.61 77.78 145.19 76.06 145.19 76.04C145.17 75.94 145.23 75.84 145.33 75.82C145.43 75.8 145.53 75.86 145.55 75.96C145.57 76.03 145.99 77.72 147.98 77.36C149.3 77.12 149.4 74.36 149.4 74.33C149.4 74.24 149.47 74.16 149.56 74.15C149.65 74.14 149.74 74.19 149.76 74.28C149.79 74.4 149.83 74.56 149.87 74.74C150.02 75.41 150.25 76.42 150.74 76.85C151.35 77.38 152.74 77.44 153.45 77.12C154.19 76.83 154.56 75.79 154.53 74.84C154.51 74.7 154.5 74.56 154.49 74.42C154.49 74.32 154.56 74.24 154.66 74.23C154.75 74.23 154.85 74.29 154.86 74.39C154.88 74.53 154.89 74.66 154.9 74.81C155.06 75.82 155.65 76.67 156.41 76.9C157.01 77.08 157.59 76.82 158.05 76.18C158.11 76.1 158.23 76.08 158.31 76.14C158.39 76.2 158.41 76.32 158.35 76.4C157.8 77.17 157.05 77.49 156.3 77.26C155.66 77.07 155.12 76.53 154.8 75.82C154.63 76.57 154.22 77.23 153.59 77.47C152.76 77.84 151.22 77.77 150.49 77.13C150.05 76.75 149.81 76.03 149.64 75.4C149.46 76.33 149.04 77.55 148.03 77.74C147.81 77.78 147.61 77.8 147.43 77.8L147.44 77.78Z" fill="#A9C0C9"/>
<path d="M151.41 72.1C150.13 72.1 145.78 72.16 145.3 73.14C144.66 74.52 151.74 74.41 153.11 74.37C159.59 74.16 160.36 71.78 151.41 72.11V72.1Z" fill="#6B7D7E"/>
<path d="M151.41 71.85C150.67 71.85 144.46 71.74 145.02 73.42C145.3 74.24 146.61 74.31 147.31 74.41C148.85 74.62 150.42 74.63 151.97 74.63C153.34 74.63 154.71 74.55 156.07 74.31C156.68 74.2 157.99 73.99 158.26 73.29C158.95 71.47 151.91 71.83 151.42 71.85C151.1 71.86 151.1 72.36 151.42 72.35C152.83 72.31 154.25 72.3 155.66 72.44C155.91 72.47 158.37 72.79 157.57 73.32C156.08 74.29 153.7 74.12 151.99 74.14C150.08 74.16 148.05 74.19 146.2 73.7C145.31 73.46 145.91 72.94 146.5 72.77C147.12 72.59 147.79 72.53 148.43 72.47C149.42 72.37 150.43 72.36 151.43 72.35C151.75 72.35 151.75 71.85 151.43 71.85H151.41Z" fill="#A9C0C9"/>
<path d="M158.14 58.37C158.06 63.27 157.88 68.17 157.82 73.07C157.82 73.31 158.19 73.31 158.19 73.07C158.26 68.17 158.43 63.27 158.52 58.37C158.52 58.13 158.15 58.13 158.15 58.37H158.14Z" fill="#8CA8AF"/>
<path d="M144.38 58.29C144.53 63.25 144.6 68.19 145.12 73.13C145.14 73.37 145.52 73.37 145.49 73.13C144.97 68.19 144.91 63.25 144.75 58.29C144.75 58.05 144.37 58.05 144.38 58.29Z" fill="#8CA8AF"/>
<path d="M151.09 59.12C151.51 64.12 150.98 69.14 151.42 74.14C151.44 74.38 151.81 74.38 151.79 74.14C151.35 69.14 151.88 64.12 151.46 59.12C151.44 58.88 151.07 58.88 151.09 59.12Z" fill="#8CA8AF"/>
<path d="M177.32 15.7C175.76 11.74 172.88 7.79001 168.36 6.97001C168.33 6.97001 168.3 6.97001 168.26 6.97001C168.23 6.97001 168.21 6.96001 168.19 6.95001C164.82 6.61001 162.86 9.96001 161.68 12.54C159.55 17.18 158.61 22.38 157.77 27.38C156.13 37.2 154.43 47.96 157.31 57.7C157.47 58.23 158.18 58.31 158.48 57.85C161.56 53.12 167.92 51.49 171.98 47.72C176.23 43.77 178.38 38 179.07 32.42C179.77 26.73 179.44 21.09 177.31 15.71L177.32 15.7Z" fill="#A9C0C9"/>
<path d="M143.8 31.58C142.3 23.5 138.78 15.42 134.7 8.26C134.56 8.01 134.33 7.93 134.11 7.96C134.02 7.96 133.92 7.98 133.82 8.04C129.73 10.15 127.52 14.18 126.15 18.35C124.67 22.82 123.9 28.27 124.58 32.95C125.47 39.01 128.89 44.35 133.4 48.49C137.09 51.89 141.69 54.09 144.98 57.97C145.35 58.4 146.08 58.04 146.08 57.53C145.99 48.88 145.37 40.11 143.79 31.59L143.8 31.58Z" fill="#546B82"/>
<path d="M163.27 2.28999C159.65 0.319991 155.43 -0.0200091 151.43 0.769991C151.18 0.819991 151.04 0.969991 150.99 1.13999C148.57 4.58999 148.22 9.40999 147.87 13.44C147.31 19.78 147.46 26.19 147.75 32.54C148.13 41.1 148.85 49.68 149.94 58.19C149.98 58.53 150.2 58.82 150.58 58.82H157.94C158.16 58.82 158.39 58.7 158.49 58.51C165.28 46.03 167.19 31.02 168.32 17.11C168.58 13.94 168.79 10.76 168.84 7.56999C168.87 5.46999 164.8 3.10999 163.27 2.27999V2.28999Z" fill="#546B82"/>
<path d="M153.08 3.22999C151.93 -3.41001 140.2 1.88999 137.1 4.15999C134.23 6.25999 133.45 8.23999 133.27 11.45C132.96 16.79 133.25 22.16 133.93 27.46C134.86 34.74 136.71 41.99 139.67 48.74C140.57 50.8 141.56 52.81 142.64 54.78C143.13 55.67 144.21 58.51 145.26 58.79C146.82 59.21 148.95 58.81 150.57 58.81C150.89 58.81 151.09 58.62 151.16 58.39C151.19 58.33 151.21 58.26 151.21 58.18C152.22 46.07 153.02 33.93 153.44 21.79C153.65 15.7 154.12 9.25999 153.08 3.21999V3.22999Z" fill="#A9C0C9"/>
<path d="M144.21 59.1C148.96 59.99 153.97 59.93 158.71 59.1C160.07 58.87 159.49 57.05 158.14 57.28C153.8 58.04 149.13 58.09 144.78 57.28C143.43 57.03 142.86 58.85 144.21 59.1Z" fill="#8CA8AF"/>
<path d="M144.887 179.024C147.869 179.024 149.36 180.161 149.36 182.434C149.36 183.435 149.005 184.257 148.296 184.898C147.599 185.54 146.766 185.86 145.798 185.86C144.83 185.86 144.009 185.703 143.334 185.388V187.025C143.334 188.229 143.367 189.051 143.435 189.49C143.514 189.928 143.621 190.204 143.756 190.317C144.014 190.531 144.425 190.637 144.988 190.637L145.022 190.84H140.464L140.498 190.637C141.06 190.637 141.471 190.531 141.73 190.317C142.011 190.08 142.152 188.983 142.152 187.025V182.839C142.152 181.635 142.113 180.813 142.034 180.374C141.966 179.936 141.865 179.66 141.73 179.547C141.471 179.333 141.06 179.227 140.498 179.227L140.464 179.024H144.887ZM143.334 179.412V184.966C143.919 185.281 144.605 185.438 145.393 185.438C146.192 185.438 146.833 185.191 147.317 184.696C147.801 184.189 148.043 183.435 148.043 182.434C148.043 181.185 147.638 180.352 146.828 179.936C146.164 179.587 145.365 179.412 144.431 179.412H143.334ZM156.576 190.637C157.004 190.637 157.302 190.604 157.471 190.536C157.651 190.469 157.741 190.294 157.741 190.013C157.741 189.732 157.443 188.775 156.846 187.143H151.698C151.214 188.572 150.972 189.473 150.972 189.844C150.972 190.204 151.062 190.429 151.242 190.519C151.434 190.598 151.771 190.637 152.255 190.637L152.289 190.84H148.491L148.525 190.637C148.851 190.637 149.104 190.609 149.284 190.553C149.475 190.497 149.678 190.35 149.892 190.114C150.117 189.867 150.331 189.512 150.533 189.051C150.736 188.589 150.978 187.942 151.259 187.11L152.761 182.771C153.29 181.241 153.555 180.313 153.555 179.986C153.555 179.66 153.476 179.452 153.319 179.362C153.161 179.26 152.857 179.21 152.407 179.21L152.373 179.024H155.158L158.146 187.11C158.653 188.449 158.99 189.298 159.159 189.658C159.339 190.019 159.508 190.249 159.665 190.35C159.947 190.542 160.301 190.637 160.729 190.637L160.763 190.84H156.543L156.576 190.637ZM154.213 179.936L151.833 186.738H156.711L154.213 179.936ZM171.452 187.683V189.777C170.89 190.125 170.209 190.418 169.41 190.654C168.622 190.891 167.817 191.009 166.996 191.009C165.207 191.009 163.761 190.429 162.658 189.27C161.555 188.111 161.004 186.665 161.004 184.932C161.004 183.199 161.532 181.759 162.59 180.611C163.659 179.452 165.094 178.872 166.895 178.872C167.682 178.872 168.476 178.985 169.275 179.21C170.074 179.423 170.665 179.654 171.047 179.902V182.062L170.861 182.029C170.738 181.128 170.299 180.442 169.545 179.969C168.791 179.497 167.907 179.26 166.895 179.26C165.454 179.26 164.357 179.778 163.603 180.813C162.849 181.849 162.472 183.221 162.472 184.932C162.472 186.631 162.866 188.004 163.654 189.051C164.441 190.097 165.584 190.621 167.08 190.621C168.588 190.621 169.652 190.148 170.271 189.203V187.886C170.271 186.637 170.198 185.872 170.051 185.59C169.916 185.298 169.511 185.151 168.836 185.151L168.802 184.983H172.938L172.904 185.151C172.262 185.151 171.857 185.303 171.689 185.607C171.531 185.911 171.452 186.603 171.452 187.683ZM182.929 190.84H174.422L174.456 190.637C175.018 190.637 175.429 190.531 175.688 190.317C175.969 190.08 176.11 188.983 176.11 187.025V182.839C176.11 181.635 176.07 180.813 175.992 180.374C175.924 179.924 175.823 179.643 175.688 179.53C175.429 179.317 175.018 179.21 174.456 179.21L174.422 179.024H182.305V181.455L182.102 181.421C182.102 180.667 181.703 180.144 180.904 179.851C180.116 179.559 178.906 179.412 177.275 179.412V184.729C178.355 184.729 179.131 184.673 179.604 184.561C180.077 184.448 180.38 184.279 180.515 184.054C180.651 183.818 180.718 183.43 180.718 182.89L180.904 182.856V186.958L180.718 186.924C180.718 186.372 180.651 185.984 180.515 185.759C180.38 185.534 180.077 185.371 179.604 185.27C179.131 185.157 178.355 185.101 177.275 185.101V187.278C177.275 188.471 177.314 189.265 177.393 189.658C177.483 190.052 177.674 190.317 177.967 190.452C181.14 190.452 182.727 189.777 182.727 188.426L182.929 188.392V190.84ZM199.627 182.822V190.924H199.104L191.153 180.881V186.991C191.153 188.117 191.204 188.927 191.305 189.422C191.407 189.917 191.575 190.244 191.812 190.401C192.048 190.559 192.436 190.637 192.976 190.637L193.01 190.84H188.858L188.892 190.637C189.432 190.637 189.82 190.559 190.056 190.401C190.293 190.244 190.461 189.917 190.563 189.422C190.675 188.927 190.731 188.117 190.731 186.991V182.822C190.731 181.697 190.675 180.892 190.563 180.408C190.461 179.913 190.293 179.592 190.056 179.446C189.831 179.288 189.443 179.21 188.892 179.21L188.858 179.024H191.153L199.205 189.068V182.822C199.205 181.708 199.149 180.903 199.036 180.408C198.935 179.913 198.766 179.592 198.53 179.446C198.294 179.288 197.9 179.21 197.348 179.21L197.315 179.024H201.501L201.467 179.21C200.916 179.21 200.522 179.288 200.286 179.446C200.049 179.592 199.88 179.913 199.779 180.408C199.678 180.903 199.627 181.708 199.627 182.822ZM208.627 178.872C210.439 178.872 211.885 179.429 212.965 180.543C214.056 181.646 214.602 183.081 214.602 184.848C214.602 186.603 214.073 188.072 213.016 189.253C211.969 190.424 210.545 191.009 208.745 191.009C206.944 191.009 205.493 190.418 204.39 189.236C203.298 188.055 202.753 186.586 202.753 184.831C202.753 183.064 203.276 181.629 204.322 180.526C205.38 179.423 206.815 178.872 208.627 178.872ZM208.728 190.621C210.168 190.621 211.26 190.103 212.003 189.068C212.757 188.021 213.134 186.648 213.134 184.949C213.134 183.25 212.74 181.877 211.952 180.83C211.164 179.784 210.05 179.26 208.61 179.26C207.181 179.26 206.089 179.778 205.335 180.813C204.592 181.849 204.221 183.221 204.221 184.932C204.221 186.631 204.615 188.004 205.403 189.051C206.19 190.097 207.299 190.621 208.728 190.621ZM215.454 179.024H225.177V181.455L225.008 181.421C225.008 180.048 223.646 179.362 220.923 179.362V187.025C220.923 188.691 221.019 189.703 221.21 190.064C221.278 190.199 221.396 190.317 221.565 190.418C221.733 190.519 221.913 190.581 222.105 190.604C222.296 190.626 222.561 190.637 222.898 190.637L222.932 190.84H217.733L217.767 190.637C218.104 190.637 218.369 190.632 218.56 190.621C218.763 190.598 218.943 190.531 219.1 190.418C219.269 190.305 219.387 190.187 219.455 190.064C219.533 189.94 219.601 189.72 219.657 189.405C219.713 189.023 219.742 188.229 219.742 187.025V179.362C217.018 179.362 215.657 180.048 215.657 181.421L215.454 181.455V179.024ZM238.385 179.024V181.455L238.199 181.421C238.199 180.678 237.799 180.161 237 179.868C236.213 179.564 235.009 179.412 233.388 179.412V184.729C234.041 184.707 234.547 184.673 234.907 184.628C235.279 184.572 235.56 184.465 235.751 184.307C235.943 184.139 236.061 183.959 236.106 183.767C236.151 183.576 236.173 183.283 236.173 182.89L236.376 182.856V186.958L236.173 186.924C236.173 186.406 236.117 186.035 236.005 185.81C235.903 185.585 235.656 185.416 235.262 185.303C234.879 185.191 234.255 185.123 233.388 185.101V187.025C233.388 188.623 233.461 189.557 233.608 189.827C233.675 189.973 233.748 190.114 233.827 190.249C233.917 190.373 234.046 190.457 234.215 190.502C234.575 190.592 235.014 190.637 235.532 190.637L235.566 190.84H230.502L230.535 190.637C231.098 190.637 231.509 190.531 231.768 190.317C232.049 190.08 232.19 188.983 232.19 187.025V182.839C232.19 181.635 232.15 180.813 232.071 180.374C232.004 179.924 231.903 179.643 231.768 179.53C231.509 179.317 231.098 179.21 230.535 179.21L230.502 179.024H238.385ZM245.222 178.872C247.034 178.872 248.48 179.429 249.56 180.543C250.652 181.646 251.198 183.081 251.198 184.848C251.198 186.603 250.669 188.072 249.611 189.253C248.564 190.424 247.141 191.009 245.34 191.009C243.54 191.009 242.088 190.418 240.985 189.236C239.894 188.055 239.348 186.586 239.348 184.831C239.348 183.064 239.871 181.629 240.918 180.526C241.975 179.423 243.41 178.872 245.222 178.872ZM245.323 190.621C246.764 190.621 247.855 190.103 248.598 189.068C249.352 188.021 249.729 186.648 249.729 184.949C249.729 183.25 249.335 181.877 248.547 180.83C247.76 179.784 246.646 179.26 245.205 179.26C243.776 179.26 242.684 179.778 241.93 180.813C241.188 181.849 240.816 183.221 240.816 184.932C240.816 186.631 241.21 188.004 241.998 189.051C242.786 190.097 243.894 190.621 245.323 190.621ZM262.971 182.856V186.164C262.971 186.918 262.875 187.588 262.684 188.173C262.504 188.758 262.267 189.225 261.975 189.574C261.682 189.923 261.333 190.21 260.928 190.435C260.242 190.817 259.454 191.009 258.565 191.009C255.515 191.009 253.991 189.45 253.991 186.333V182.839C253.991 181.635 253.951 180.813 253.872 180.374C253.805 179.936 253.704 179.66 253.569 179.547C253.31 179.333 252.899 179.227 252.336 179.227L252.303 179.024H256.843L256.81 179.227C256.539 179.227 256.32 179.238 256.151 179.26C255.994 179.283 255.847 179.345 255.712 179.446C255.577 179.547 255.476 179.665 255.408 179.8C255.352 179.924 255.302 180.138 255.257 180.442C255.2 180.836 255.172 181.635 255.172 182.839V186.417C255.172 187.858 255.493 188.904 256.134 189.557C256.787 190.199 257.659 190.519 258.751 190.519C259.842 190.519 260.748 190.17 261.468 189.473C262.189 188.764 262.549 187.672 262.549 186.198V182.856C262.549 181.73 262.498 180.92 262.397 180.425C262.296 179.93 262.127 179.609 261.89 179.463C261.665 179.305 261.277 179.227 260.726 179.227L260.692 179.024H264.844L264.811 179.227C264.259 179.227 263.865 179.305 263.629 179.463C263.404 179.609 263.235 179.93 263.123 180.425C263.021 180.92 262.971 181.73 262.971 182.856ZM276.593 182.822V190.924H276.069L268.119 180.881V186.991C268.119 188.117 268.17 188.927 268.271 189.422C268.372 189.917 268.541 190.244 268.777 190.401C269.014 190.559 269.402 190.637 269.942 190.637L269.976 190.84H265.823L265.857 190.637C266.397 190.637 266.785 190.559 267.022 190.401C267.258 190.244 267.427 189.917 267.528 189.422C267.641 188.927 267.697 188.117 267.697 186.991V182.822C267.697 181.697 267.641 180.892 267.528 180.408C267.427 179.913 267.258 179.592 267.022 179.446C266.797 179.288 266.408 179.21 265.857 179.21L265.823 179.024H268.119L276.171 189.068V182.822C276.171 181.708 276.114 180.903 276.002 180.408C275.901 179.913 275.732 179.592 275.496 179.446C275.259 179.288 274.865 179.21 274.314 179.21L274.28 179.024H278.466L278.433 179.21C277.881 179.21 277.487 179.288 277.251 179.446C277.015 179.592 276.846 179.913 276.745 180.408C276.643 180.903 276.593 181.708 276.593 182.822ZM283.381 179.024C285.317 179.024 286.768 179.193 287.736 179.53C288.175 179.688 288.642 179.913 289.137 180.206C289.632 180.498 290.032 180.847 290.336 181.252C290.651 181.657 290.909 182.175 291.112 182.805C291.326 183.435 291.433 184.144 291.433 184.932C291.433 185.708 291.326 186.412 291.112 187.042C290.909 187.661 290.651 188.173 290.336 188.578C290.032 188.983 289.649 189.338 289.188 189.642C288.738 189.934 288.31 190.154 287.905 190.3C287.5 190.446 287.05 190.564 286.554 190.654C285.891 190.778 285.21 190.84 284.512 190.84H279.971L280.005 190.637C280.568 190.637 280.978 190.531 281.237 190.317C281.519 190.08 281.659 188.983 281.659 187.025V182.839C281.659 181.635 281.62 180.813 281.541 180.374C281.474 179.924 281.372 179.643 281.237 179.53C280.978 179.317 280.568 179.21 280.005 179.21L279.971 179.024H283.381ZM283.465 190.435C283.6 190.446 283.876 190.452 284.293 190.452C284.72 190.452 285.182 190.407 285.677 190.317C286.183 190.227 286.701 190.058 287.23 189.81C287.77 189.551 288.231 189.225 288.614 188.831C289.008 188.437 289.328 187.909 289.576 187.245C289.835 186.569 289.964 185.804 289.964 184.949C289.964 184.082 289.84 183.317 289.593 182.653C289.345 181.989 289.025 181.46 288.631 181.066C288.237 180.661 287.775 180.329 287.247 180.071C286.313 179.632 285.283 179.412 284.157 179.412C283.651 179.412 283.212 179.446 282.841 179.514V187.228C282.841 188.443 282.875 189.248 282.942 189.642C283.01 190.035 283.184 190.3 283.465 190.435Z" fill="white"/>
<path d="M137.147 147.311V144.355L169.375 98.3011L172.14 98.7779V144.451H183.963V147.311H172.235C172.426 152.587 173.221 155.956 174.619 157.418C176.018 158.817 178.942 159.516 183.391 159.516L183.582 160.66H154.024L154.214 159.516C158.664 159.516 161.556 158.817 162.891 157.418C164.29 156.02 165.116 152.651 165.37 147.311H137.147ZM165.466 139.111V109.076L140.674 144.451H165.37C165.434 143.37 165.466 141.59 165.466 139.111ZM190.81 130.243C190.81 120.327 192.844 112.54 196.912 106.883C201.044 101.225 206.32 98.3964 212.74 98.3964C219.161 98.3964 224.373 101.225 228.378 106.883C232.446 112.54 234.48 120.327 234.48 130.243C234.48 140.096 232.478 147.788 228.473 153.318C224.469 158.848 219.224 161.614 212.74 161.614C206.32 161.614 201.044 158.848 196.912 153.318C192.844 147.788 190.81 140.096 190.81 130.243ZM197.675 130.148C197.675 138.666 199.105 145.595 201.966 150.934C204.89 156.21 208.482 158.848 212.74 158.848C217.063 158.848 220.623 156.21 223.42 150.934C226.217 145.658 227.615 138.761 227.615 130.243C227.615 121.662 226.217 114.638 223.42 109.171C220.623 103.641 217.063 100.876 212.74 100.876C208.482 100.876 204.89 103.641 201.966 109.171C199.105 114.638 197.675 121.63 197.675 130.148ZM241.994 147.311V144.355L274.223 98.3011L276.988 98.7779V144.451H288.811V147.311H277.083C277.274 152.587 278.068 155.956 279.467 157.418C280.865 158.817 283.789 159.516 288.239 159.516L288.43 160.66H258.871L259.062 159.516C263.512 159.516 266.404 158.817 267.739 157.418C269.137 156.02 269.964 152.651 270.218 147.311H241.994ZM270.313 139.111V109.076L245.522 144.451H270.218C270.281 143.37 270.313 141.59 270.313 139.111Z" fill="white"/>
<path d="M198.862 69.5246C201.741 69.5246 204.038 70.4097 205.755 72.1798C207.489 73.932 208.356 76.2117 208.356 79.0189C208.356 81.8082 207.516 84.1415 205.835 86.0189C204.172 87.8784 201.911 88.8082 199.05 88.8082C196.189 88.8082 193.883 87.8695 192.13 85.9921C190.396 84.1147 189.529 81.7814 189.529 78.9921C189.529 76.1849 190.36 73.9052 192.023 72.153C193.704 70.4007 195.983 69.5246 198.862 69.5246ZM199.023 88.1913C201.312 88.1913 203.046 87.3689 204.226 85.7239C205.424 84.0611 206.023 81.8797 206.023 79.1798C206.023 76.4799 205.397 74.2986 204.146 72.6357C202.894 70.9729 201.124 70.1415 198.835 70.1415C196.565 70.1415 194.83 70.964 193.632 72.6089C192.452 74.2539 191.862 76.4352 191.862 79.153C191.862 81.8529 192.488 84.0342 193.739 85.6971C194.991 87.3599 196.752 88.1913 199.023 88.1913ZM210.38 82.2105C210.38 80.3331 210.917 78.7596 211.989 77.4902C213.062 76.2207 214.519 75.5859 216.361 75.5859C218.203 75.5859 219.687 76.2207 220.813 77.4902C221.94 78.7596 222.503 80.3331 222.503 82.2105C222.503 84.0879 221.958 85.6613 220.867 86.9308C219.794 88.1824 218.337 88.8082 216.495 88.8082C214.654 88.8082 213.17 88.1735 212.043 86.904C210.935 85.6345 210.38 84.07 210.38 82.2105ZM213.465 86.5553C214.18 87.6996 215.19 88.2718 216.495 88.2718C217.8 88.2718 218.784 87.7086 219.445 86.5821C220.125 85.4557 220.465 84.0074 220.465 82.2373C220.465 80.4493 220.107 78.9831 219.392 77.8388C218.677 76.6945 217.666 76.1223 216.361 76.1223C215.074 76.1223 214.09 76.6945 213.411 77.8388C212.749 78.9653 212.419 80.4135 212.419 82.1837C212.419 83.9538 212.767 85.411 213.465 86.5553ZM228.409 79.0994C228.713 78.116 229.196 77.2845 229.858 76.6051C230.537 75.9257 231.44 75.5859 232.566 75.5859C233.711 75.5859 234.667 75.9346 235.436 76.6319C236.831 77.8656 237.528 79.7341 237.528 82.2373C237.528 84.1147 236.956 85.6792 235.812 86.9308C234.667 88.1824 233.219 88.8082 231.467 88.8082C230.197 88.8082 229.178 88.5668 228.409 88.0841V91.2488C228.409 92.3216 228.418 93.0994 228.436 93.5822C228.472 94.0649 228.57 94.4762 228.731 94.8159C228.91 95.1735 229.133 95.388 229.402 95.4596C229.688 95.5311 230.117 95.5668 230.689 95.5668L230.743 95.8887H224.252L224.306 95.5668C225.343 95.5668 225.969 95.3344 226.183 94.8695C226.416 94.4225 226.532 93.2156 226.532 91.2488V79.9308C226.532 78.9653 226.514 78.2769 226.478 77.8656C226.46 77.4544 226.362 77.0968 226.183 76.7928C226.022 76.4889 225.808 76.319 225.54 76.2833C225.289 76.2296 224.878 76.2028 224.306 76.2028L224.252 75.9078C225.522 75.6932 226.907 75.5859 228.409 75.5859V79.0994ZM231.118 88.0304C232.763 88.0304 233.916 87.4136 234.578 86.1798C235.186 85.0534 235.49 83.7392 235.49 82.2373C235.49 80.8963 235.293 79.6536 234.9 78.5093C234.667 77.8835 234.31 77.3829 233.827 77.0074C233.344 76.614 232.763 76.4174 232.084 76.4174C231.422 76.4174 230.832 76.6587 230.314 77.1415C229.795 77.6064 229.411 78.1875 229.16 78.8848C228.66 80.2794 228.409 81.4595 228.409 82.425V86.609C228.964 87.5566 229.867 88.0304 231.118 88.0304ZM240.52 84.5438C240.52 85.706 240.833 86.5821 241.459 87.1722C242.085 87.7443 242.827 88.0304 243.685 88.0304C244.561 88.0304 245.268 87.8337 245.804 87.4404C246.34 87.047 246.609 86.5196 246.609 85.858C246.609 85.1786 246.376 84.6243 245.911 84.1952C245.464 83.766 244.919 83.4174 244.275 83.1492C243.632 82.881 242.979 82.6038 242.317 82.3178C241.674 82.0317 241.119 81.6115 240.655 81.0572C240.208 80.5029 239.984 79.7609 239.984 78.8312C239.984 77.9014 240.395 77.1326 241.218 76.5246C242.058 75.8988 243.024 75.5859 244.114 75.5859C245.67 75.5859 246.886 75.8363 247.762 76.3369C247.762 77.1594 247.655 78.3037 247.44 79.7699L247.118 79.6894C247.118 78.5093 246.85 77.6511 246.314 77.1147C245.777 76.5783 245.125 76.3101 244.356 76.3101C243.605 76.3101 242.997 76.5068 242.532 76.9001C242.085 77.2935 241.861 77.8299 241.861 78.5093C241.861 79.1709 242.085 79.7073 242.532 80.1185C242.997 80.5119 243.551 80.8427 244.195 81.1109C244.838 81.3791 245.482 81.6651 246.126 81.9691C246.787 82.2552 247.342 82.6754 247.789 83.2296C248.254 83.766 248.486 84.4276 248.486 85.2143C248.486 86.3586 248.039 87.2437 247.145 87.8695C246.251 88.4953 245.071 88.8082 243.605 88.8082C242.156 88.8082 240.932 88.4238 239.93 87.6549C239.93 86.7609 240.02 85.706 240.199 84.4902L240.52 84.5438ZM251.708 70.812C251.708 70.4544 251.806 70.1504 252.003 69.9001C252.2 69.6498 252.495 69.5246 252.888 69.5246C253.299 69.5246 253.603 69.6498 253.8 69.9001C253.997 70.1504 254.095 70.4544 254.095 70.812C254.095 71.9205 253.952 74.0393 253.666 77.1683C253.38 80.2794 253.237 82.5055 253.237 83.8465H252.566C252.566 82.5055 252.423 80.2794 252.137 77.1683C251.851 74.0393 251.708 71.9205 251.708 70.812ZM251.493 87.4136C251.493 87.0023 251.628 86.6626 251.896 86.3944C252.182 86.1083 252.522 85.9653 252.915 85.9653C253.308 85.9653 253.639 86.1083 253.907 86.3944C254.175 86.6626 254.31 87.0023 254.31 87.4136C254.31 87.8069 254.166 88.1377 253.88 88.4059C253.612 88.6741 253.281 88.8082 252.888 88.8082C252.513 88.8082 252.182 88.6741 251.896 88.4059C251.628 88.1377 251.493 87.8069 251.493 87.4136Z" fill="white"/>
</g>
<defs>
<clipPath id="clip0_4_3">
<rect width="425.45" height="400.93" fill="white"/>
</clipPath>
</defs>
</svg>
